<?xml version="1.0" standalone="no"?>
<!DOCTYPE svg PUBLIC "-//W3C//DTD SVG 1.1//EN" "http://www.w3.org/Graphics/SVG/1.1/DTD/svg11.dtd" >
<svg>
<metadata>
Created by FontForge 20120731 at Thu Nov  7 21:28:18 2013
 By World Wide Web Server
Copyright (c) 2010 by . All rights reserved.
</metadata>
<defs>
<font id="Melbourne" horiz-adv-x="451" >
  <font-face 
    font-family="Melbourne"
    font-weight="400"
    font-stretch="normal"
    units-per-em="1000"
    panose-1="2 0 0 0 0 0 0 0 0 0"
    ascent="750"
    descent="-250"
    x-height="500"
    cap-height="700"
    bbox="-35 -212 707.561 865.634"
    underline-thickness="50"
    underline-position="-50"
    unicode-range="U+0020-2212"
  />
<missing-glyph horiz-adv-x="250" 
 />
    <glyph glyph-name=".notdef" horiz-adv-x="250" 
 />
    <glyph glyph-name="space" unicode=" " horiz-adv-x="210" 
 />
    <glyph glyph-name="numbersign" unicode="#" horiz-adv-x="638" 
d="M373 182l38 160h-157l-37 -160h156zM419 127l-33 -135c-1 -6 -5 -8 -10 -8h-42c-4 0 -10 0 -7 10l34 133h-156l-33 -135c-1 -6 -5 -8 -10 -8h-42c-4 0 -9 0 -7 10l33 133h-116c-11 -1 -9 5 -8 9l9 38c2 5 4 8 10 8h117l38 160h-137c-11 -1 -9 5 -8 9l9 37c2 5 4 8 10 8
h139l34 143c1 6 5 8 10 8h42c4 0 9 1 6 -9l-34 -142h156l34 143c2 6 5 8 10 8h42c4 0 10 0 7 -10l-34 -141l127 1c11 0 9 -6 8 -9l-9 -38c-2 -5 -4 -8 -11 -8h-127l-38 -160h148c11 0 9 -6 8 -9l-9 -38c-2 -5 -4 -8 -11 -8h-149z" />
    <glyph glyph-name="dollar" unicode="$" horiz-adv-x="485" 
d="M269 -7v-70c0 -10 -9 -10 -9 -10h-38s-10 0 -10 10v70c-76 10 -168 62 -168 196c0 10 10 10 10 10h42s9 0 9 -10c0 -95 53 -130 107 -138v291l-62 32c-88 45 -98 116 -98 165c0 97 70 156 160 166v66c0 10 9 10 9 10h38s10 0 10 -10v-65c104 -10 152 -78 164 -160
c1 -5 0 -11 -6 -13l-39 -10c-6 -2 -13 1 -14 7c-7 64 -42 105 -105 114v-265l81 -43c59 -31 91 -89 91 -154c0 -99 -62 -179 -172 -189zM380 182c0 42 -18 83 -77 114l-34 17v-262c80 12 111 78 111 131zM113 536c0 -44 14 -81 55 -104l44 -25v237c-74 -11 -99 -64 -99 -108
z" />
    <glyph glyph-name="percent" unicode="%" horiz-adv-x="585" 
d="M462 690l-230 -682c-2 -6 -5 -8 -10 -8h-42c-4 0 -10 0 -7 10l230 682c2 6 5 8 10 8h42c4 0 10 0 7 -10zM165 685c-74 0 -107 -52 -107 -126v-80c0 -73 39 -126 107 -126c67 0 106 53 106 126v80c0 74 -32 126 -106 126zM165 405c-32 0 -57 25 -57 81v66
c0 56 25 83 57 83s56 -27 56 -83v-66c0 -56 -24 -81 -56 -81zM461 332c-74 0 -107 -52 -107 -126v-80c0 -73 39 -126 107 -126c67 0 106 53 106 126v80c0 74 -32 126 -106 126zM461 52c-32 0 -57 25 -57 81v66c0 56 25 83 57 83s56 -27 56 -83v-66c0 -56 -24 -81 -56 -81z
" />
    <glyph glyph-name="ampersand" unicode="&#x26;" horiz-adv-x="590" 
d="M156 292c-47 -43 -65 -65 -65 -128c0 -59 51 -116 126 -116c34 0 59 18 98 63l23 27l-128 202zM109 323l71 63l-22 37c-70 115 18 220 122 220c72 0 143 -38 143 -140c0 -6 -2 -10 -10 -10h-38c-6 0 -9 2 -9 10c0 43 -18 84 -84 84c-69 0 -122 -61 -69 -144l170 -265
c24 24 45 45 80 46h21c7 0 11 -4 11 -10v-34c0 -7 -2 -11 -10 -11h-15c-21 -1 -40 -14 -57 -38c43 -65 54 -76 85 -76h18c5 0 10 -4 10 -10v-34c0 -7 -2 -11 -10 -11h-22c-50 0 -74 20 -120 90l-23 -26c-43 -48 -75 -71 -135 -71c-116 0 -179 83 -179 171
c0 52 13 107 72 159z" />
    <glyph glyph-name="quotesingle" unicode="'" horiz-adv-x="139" 
d="M81 575h-19s-9 0 -10 10l-13 145c0 10 9 10 9 10h45s10 0 10 -10l-12 -145c-1 -10 -10 -10 -10 -10z" />
    <glyph glyph-name="parenleft" unicode="(" horiz-adv-x="297" 
d="M111 423v-136c0 -244 77 -357 127 -397c5 -4 7 -11 2 -16l-25 -25c-6 -6 -10 -6 -16 -1c-74 61 -149 197 -149 449v116c0 252 75 388 149 449c6 5 10 5 16 -1l25 -25c5 -5 3 -12 -2 -16c-50 -40 -127 -153 -127 -397z" />
    <glyph glyph-name="parenright" unicode=")" horiz-adv-x="348" 
d="M194 287v136c0 244 -77 357 -127 397c-5 4 -7 11 -2 16l25 25c6 6 10 6 16 1c74 -61 149 -197 149 -449v-116c0 -252 -75 -388 -149 -449c-6 -5 -10 -5 -16 1l-25 25c-5 5 -3 12 2 16c50 40 127 153 127 397z" />
    <glyph glyph-name="asterisk" unicode="*" horiz-adv-x="293" 
d="M145 608l-51 -58c-7 -8 -13 -3 -13 -3l-18 13s-6 6 -2 15l33 66l-67 36c-9 4 -6 11 -6 11l6 21s4 8 14 7l72 -11l12 74c2 11 10 10 10 10h22s8 0 10 -10l12 -74l74 11c12 2 13 -6 13 -6l7 -21s2 -8 -7 -13l-66 -34l32 -67c5 -11 -1 -14 -1 -14l-18 -13s-7 -4 -15 3z" />
    <glyph glyph-name="plus" unicode="+" horiz-adv-x="314" 
d="M128 296v115c0 10 9 10 9 10h39s10 0 10 -10v-115h109c10 0 10 -9 10 -9v-37s0 -10 -10 -10h-109v-115c0 -10 -9 -10 -9 -10h-39s-10 0 -10 10v115h-109c-10 0 -10 9 -10 9v37s0 10 10 10h109z" />
    <glyph glyph-name="comma" unicode="," horiz-adv-x="140" 
d="M19 -105h-2c-7 0 -8 5 -8 10v8c0 5 1 8 6 8h4c39 0 53 31 51 79h-27s-10 0 -10 10v60c0 10 9 10 9 10h57s10 0 10 -10v-60c0 -83 -30 -115 -90 -115z" />
    <glyph glyph-name="hyphen" unicode="-" horiz-adv-x="307" 
d="M247 240h-185c-10 0 -10 9 -10 9v37s0 10 10 10h185c10 0 10 -9 10 -9v-37s0 -10 -10 -10z" />
    <glyph glyph-name="period" unicode="." horiz-adv-x="169" 
d="M120 70v-60c0 -10 -9 -10 -9 -10h-57s-10 0 -10 10v60c0 10 9 10 9 10h57s10 0 10 -10z" />
    <glyph glyph-name="slash" unicode="/" horiz-adv-x="328" 
d="M321 725l-254 -752c-2 -6 -5 -8 -10 -8h-42c-4 0 -10 0 -7 10l254 752c2 6 5 8 10 8h42c4 0 10 0 7 -10z" />
    <glyph glyph-name="zero" unicode="0" horiz-adv-x="474" 
d="M237 707c123 0 177 -87 177 -209v-295c0 -122 -65 -210 -177 -210s-177 88 -177 210v295c0 122 54 209 177 209zM237 51c65 0 116 40 116 152v295c0 112 -51 151 -116 151s-116 -39 -116 -151v-295c0 -112 51 -152 116 -152z" />
    <glyph glyph-name="one" unicode="1" horiz-adv-x="421" 
d="M376 0h-331c-10 0 -10 10 -10 10v39s0 9 11 9h134v584h-79c-10 0 -10 10 -10 10v39s0 9 11 9h129s10 0 10 -10v-632h134c11 0 11 -9 11 -9v-39s0 -10 -10 -10z" />
    <glyph glyph-name="two" unicode="2" horiz-adv-x="432" 
d="M213 707c134 0 181 -97 181 -192c0 -61 -11 -123 -74 -202l-183 -255h250c10 0 10 -9 10 -9v-40s0 -9 -9 -9h-319c-9 0 -9 9 -9 9v39c0 5 3 14 9 21l192 267c62 79 72 118 72 179c0 75 -36 134 -121 134c-57 0 -105 -28 -105 -116c0 -12 -10 -12 -10 -12h-42s-9 0 -9 12
c0 101 61 174 167 174z" />
    <glyph glyph-name="three" unicode="3" horiz-adv-x="462" 
d="M61 532c0 111 67 175 165 175c112 0 167 -73 167 -185c0 -55 -9 -149 -78 -163c81 -35 87 -115 87 -170c0 -122 -65 -196 -177 -196c-139 0 -175 115 -175 186c0 10 9 10 9 10h42s10 0 10 -10c0 -84 43 -128 114 -128c65 0 116 26 116 138c0 107 -53 143 -100 143h-23
c-10 0 -10 10 -10 10v38s0 9 10 9h24c47 0 90 26 90 133c0 102 -49 127 -106 127c-72 0 -104 -38 -104 -117c0 -10 -10 -10 -10 -10h-42s-9 0 -9 10z" />
    <glyph glyph-name="four" unicode="4" horiz-adv-x="475" 
d="M284 642l-184 -405v-12h193v417h-9zM43 253l204 437c6 9 13 10 13 10h84s10 0 10 -10v-465h61c10 0 10 -9 10 -9v-39s0 -10 -11 -10h-60v-157c0 -10 -9 -10 -9 -10h-42s-10 0 -10 10v157h-248c-10 2 -10 12 -10 12v47c0 6 3 17 8 27z" />
    <glyph glyph-name="five" unicode="5" horiz-adv-x="447" 
d="M101 419c23 38 84 43 119 43c120 0 177 -91 177 -195v-64c0 -122 -65 -209 -177 -209s-180 73 -180 201c0 10 9 10 9 10h42s10 0 10 -10c0 -113 44 -143 119 -143c65 0 116 39 116 151v62c0 95 -41 139 -116 139c-59 0 -119 -19 -119 -73c0 -10 -10 -10 -10 -10h-42
s-9 0 -9 10v359c0 10 9 10 9 10h301c10 0 10 -9 10 -9v-39s0 -10 -10 -10h-249v-223z" />
    <glyph glyph-name="six" unicode="6" horiz-adv-x="456" 
d="M113 498v-118c26 43 88 52 122 52c120 0 174 -91 174 -195v-34c0 -122 -61 -210 -184 -210c-110 0 -173 89 -173 210v295c0 138 75 209 180 209c112 0 177 -82 177 -183c0 -12 -9 -12 -9 -12h-42s-10 0 -10 12c0 88 -51 125 -116 125s-119 -30 -119 -151zM113 235v-32
c0 -112 51 -152 112 -152c77 0 123 40 123 152v32c0 95 -38 139 -112 139c-33 0 -123 -5 -123 -139z" />
    <glyph glyph-name="seven" unicode="7" horiz-adv-x="403" 
d="M72 10c-6 -12 221 521 226 533c21 50 21 77 21 99h-274c-10 0 -10 9 -10 9v40s0 9 9 9c0 0 -26 0 328 0c9 0 9 -9 9 -9v-51c0 -21 -4 -63 -30 -122c-15 -34 -214 -508 -214 -508c-5 -10 -10 -10 -13 -10h-45c-4 0 -12 0 -7 10z" />
    <glyph glyph-name="eight" unicode="8" horiz-adv-x="450" 
d="M225 399c47 0 104 21 104 128c0 102 -47 122 -104 122c-71 0 -105 -38 -105 -122c0 -107 58 -128 105 -128zM225 51c65 0 114 40 114 138c0 107 -49 153 -114 153s-114 -46 -114 -153c0 -98 49 -138 114 -138zM390 527c0 -55 -16 -124 -77 -158c81 -35 87 -125 87 -180
c0 -71 -39 -196 -175 -196s-175 125 -175 196c0 55 6 145 87 180c-59 30 -78 103 -78 158c0 71 27 180 166 180s165 -109 165 -180z" />
    <glyph glyph-name="nine" unicode="9" horiz-adv-x="460" 
d="M231 707c111 0 179 -89 179 -209v-295c0 -128 -68 -210 -180 -210s-177 83 -177 184c0 12 9 12 9 12h42s10 0 10 -12c0 -88 51 -126 116 -126c75 0 119 53 119 152v120c-25 -38 -70 -54 -117 -54c-120 0 -182 91 -182 195v34c0 122 58 209 181 209zM232 327
c72 0 117 47 117 135v36c0 112 -49 151 -118 151c-75 0 -120 -39 -120 -151v-32c0 -95 46 -139 121 -139z" />
    <glyph glyph-name="colon" unicode=":" horiz-adv-x="176" 
d="M126 70v-60c0 -10 -9 -10 -9 -10h-57s-10 0 -10 10v60c0 10 9 10 9 10h57s10 0 10 -10zM126 377v-60c0 -10 -9 -10 -9 -10h-57s-10 0 -10 10v60c0 10 9 10 9 10h57s10 0 10 -10z" />
    <glyph glyph-name="semicolon" unicode=";" horiz-adv-x="184" 
d="M134 377v-60c0 -10 -9 -10 -9 -10h-57s-10 0 -10 10v60c0 10 9 10 9 10h57s10 0 10 -10zM44 -105h-2c-7 0 -8 5 -8 10v8c0 5 1 8 6 8h4c39 0 53 31 51 79h-27s-10 0 -10 10v60c0 10 9 10 9 10h57s10 0 10 -10v-60c0 -83 -30 -115 -90 -115z" />
    <glyph glyph-name="less" unicode="&#x3c;" horiz-adv-x="326" 
d="M10 253c0 -1 0 32 0 32s0 8 10 14l251 159c10 6 10 -6 10 -6v-48s0 -9 -10 -14l-205 -121l205 -121c10 -5 10 -14 10 -14v-48s0 -12 -10 -6l-251 159c-9 6 -10 10 -10 14z" />
    <glyph glyph-name="equal" unicode="=" horiz-adv-x="485" 
d="M410 169h-335c-10 0 -10 9 -10 9v37s0 10 10 10h335c10 0 10 -9 10 -9v-37s0 -10 -10 -10zM410 310h-335c-10 0 -10 9 -10 9v37s0 10 10 10h335c10 0 10 -9 10 -9v-37s0 -10 -10 -10z" />
    <glyph glyph-name="greater" unicode="&#x3e;" horiz-adv-x="326" 
d="M316 253c0 -4 -1 -8 -10 -14l-251 -159c-10 -6 -10 6 -10 6v48s0 9 10 14l205 121l-205 121c-10 5 -10 14 -10 14v48s0 12 10 6l251 -159c10 -6 10 -14 10 -14s0 -33 0 -32z" />
    <glyph glyph-name="question" unicode="?" horiz-adv-x="374" 
d="M67 561c0 -12 -10 -12 -10 -12h-38s-9 0 -9 12c4 98 58 146 161 146c114 0 163 -77 163 -172c0 -73 -33 -109 -78 -161c-25 -29 -55 -68 -55 -95v-111c0 -10 -9 -10 -9 -10h-42s-10 0 -10 10v103c0 56 33 97 71 140c23 27 62 62 62 124c0 65 -29 114 -104 114
c-67 0 -102 -29 -102 -88zM210 70v-60c0 -10 -9 -10 -9 -10h-57s-10 0 -10 10v60c0 10 9 10 9 10h57s10 0 10 -10z" />
    <glyph glyph-name="at" unicode="@" horiz-adv-x="704" 
d="M330 -121c-275 62 -269 258 -269 366v92c0 187 98 297 292 297c171 0 291 -129 291 -297v-77c0 -131 -81 -266 -249 -266c-118 0 -201 52 -201 134c0 74 20 115 110 137l145 34v55c-3 56 -41 98 -99 98c-60 0 -93 -34 -93 -86c0 -5 -6 -7 -6 -7h-48s-5 2 -5 7
c0 87 66 142 152 142c82 0 158 -54 158 -170v-206c0 -5 -6 -7 -6 -7h-48s-5 2 -5 7v107l-139 -32c-58 -13 -58 -47 -58 -73c0 -51 46 -84 143 -84c182 0 191 174 191 212v75c0 159 -122 241 -233 241c-145 0 -234 -83 -234 -241v-92c0 -132 8 -266 222 -311c5 -1 7 -4 6 -7
l-9 -44c0 -3 -3 -5 -8 -4z" />
    <glyph glyph-name="A" unicode="A" horiz-adv-x="586" 
d="M287 642l-88 -320h190l-84 320h-18zM250 700h88s9 0 12 -10l190 -683c2 -7 -6 -7 -6 -7h-49c-3 0 -7 3 -9 10l-72 253h-220l-74 -253c-2 -7 -6 -10 -9 -10h-49s-8 0 -6 7l193 683c3 10 11 10 11 10z" />
    <glyph glyph-name="B" unicode="B" horiz-adv-x="510" 
d="M141 642v-245h88c94 0 150 43 150 122c0 80 -41 123 -133 123h-105zM344 374c86 -20 116 -87 116 -170c0 -103 -59 -204 -203 -204h-177v700h166c135 0 194 -77 194 -181c0 -91 -59 -139 -96 -145zM248 341h-107v-283h116c85 0 142 50 142 144c0 114 -66 139 -151 139z
" />
    <glyph glyph-name="C" unicode="C" horiz-adv-x="522" 
d="M462 545c1 -5 0 -11 -6 -13l-39 -10c-6 -3 -13 1 -14 7c-8 73 -52 120 -133 120c-95 0 -139 -49 -139 -162v-275c0 -113 44 -161 139 -161c85 0 136 49 136 161c0 10 9 10 9 10h42s10 0 10 -10c0 -122 -54 -219 -197 -219c-132 0 -200 91 -200 219v275
c0 128 68 220 200 220c124 0 179 -73 192 -162z" />
    <glyph glyph-name="D" unicode="D" horiz-adv-x="539" 
d="M80 700h192c143 0 197 -97 197 -219v-262c0 -122 -54 -219 -197 -219h-192v700zM272 642h-131v-584h131c85 0 136 49 136 161v262c0 112 -51 161 -136 161z" />
    <glyph glyph-name="E" unicode="E" horiz-adv-x="503" 
d="M80 0v700h353c10 0 10 -9 10 -9v-40s0 -9 -9 -9h-293v-261h222c10 0 10 -9 10 -9v-40s0 -9 -9 -9h-223v-265h292c10 0 10 -9 10 -9v-40s0 -9 -9 -9h-354z" />
    <glyph glyph-name="F" unicode="F" horiz-adv-x="483" 
d="M141 10c-1 -10 -10 -10 -10 -10h-41s-10 0 -10 10v690h333c10 0 10 -9 10 -9v-40s-1 -9 -10 -9h-272v-261h202c10 0 10 -9 10 -9v-40s-1 -9 -10 -9h-202v-313z" />
    <glyph glyph-name="G" unicode="G" horiz-adv-x="517" 
d="M457 323v-110c0 -122 -54 -220 -197 -220c-132 0 -200 92 -200 220v275c0 128 61 219 193 219c124 0 179 -72 192 -161c1 -5 0 -11 -6 -13l-39 -10c-7 -2 -13 1 -14 7c-12 72 -52 119 -133 119c-95 0 -132 -48 -132 -161v-275c0 -113 44 -162 139 -162
c85 0 136 50 136 162v62h-151c-10 0 -10 9 -10 9v39s0 10 10 10h202s10 0 10 -10z" />
    <glyph glyph-name="H" unicode="H" horiz-adv-x="557" 
d="M141 334v-324c0 -10 -9 -10 -9 -10h-42s-10 0 -10 10v680c0 10 9 10 9 10h42s10 0 10 -10v-298h275v298c0 10 9 10 9 10h42s10 0 10 -10v-680c0 -10 -9 -10 -9 -10h-42s-10 0 -10 10v324h-275z" />
    <glyph glyph-name="I" unicode="I" horiz-adv-x="221" 
d="M141 690v-680c0 -10 -9 -10 -9 -10h-42s-10 0 -10 10v680c0 10 9 10 9 10h42s10 0 10 -10z" />
    <glyph glyph-name="J" unicode="J" horiz-adv-x="350" 
d="M55 52c72 0 164 34 164 161v477c0 10 9 10 9 10h42s10 0 10 -10v-477c0 -124 -90 -219 -225 -219c-10 0 -10 9 -10 9v39s0 10 10 10z" />
    <glyph glyph-name="K" unicode="K" horiz-adv-x="545" 
d="M245 395l156 -277c22 -38 44 -63 73 -63h16c10 0 10 -10 10 -10v-34s0 -11 -10 -11h-22c-54 0 -85 31 -127 103l-139 240l-61 -87v-246c0 -10 -9 -10 -9 -10h-43s-9 0 -9 10v680c0 10 9 10 9 10h42s10 0 10 -10v-338l240 338c5 10 14 10 14 10h48s12 0 6 -10z" />
    <glyph glyph-name="L" unicode="L" horiz-adv-x="428" 
d="M373 0h-293v690c0 10 9 10 9 10h42s10 0 10 -10v-632h232c10 0 10 -9 10 -9v-39s0 -10 -10 -10z" />
    <glyph glyph-name="M" unicode="M" horiz-adv-x="606" 
d="M270 305l-133 322l4 -617s0 -10 -10 -10h-41s-10 0 -10 10v680s0 10 10 10h62s9 0 14 -10l138 -324l136 324c5 10 14 10 14 10h62s10 0 10 -10v-680s0 -10 -10 -10h-41s-10 0 -10 10l5 617l-129 -322c-4 -9 -9 -10 -11 -10h-48c-2 0 -8 1 -12 10z" />
    <glyph glyph-name="N" unicode="N" horiz-adv-x="566" 
d="M430 73l-5 617s0 10 10 10h41s10 0 10 -10v-680s0 -10 -10 -10h-64s-9 0 -14 10l-262 617l5 -617s0 -10 -10 -10h-41s-10 0 -10 10v680s0 10 10 10h64s9 0 14 -10z" />
    <glyph glyph-name="O" unicode="O" horiz-adv-x="538" 
d="M269 707c143 0 199 -98 199 -220v-275c0 -122 -56 -219 -199 -219s-199 97 -199 219v275c0 122 56 220 199 220zM269 649c-85 0 -138 -50 -138 -162v-275c0 -112 53 -161 138 -161s138 49 138 161v275c0 112 -53 162 -138 162z" />
    <glyph glyph-name="P" unicode="P" horiz-adv-x="508" 
d="M141 256v-246c0 -10 -9 -10 -9 -10h-42s-10 0 -10 10v690h157c143 0 201 -87 201 -209v-26c0 -122 -58 -209 -201 -209h-96zM141 642v-328h96c85 0 140 39 140 151v26c0 112 -55 151 -140 151h-96z" />
    <glyph glyph-name="Q" unicode="Q" horiz-adv-x="560" 
d="M269 707c143 0 199 -98 199 -220v-275c0 -57 -12 -108 -39 -147c10 -7 21 -10 35 -10h16c10 0 10 -10 10 -10v-34s0 -11 -10 -11h-22c-28 0 -49 8 -69 26c-30 -21 -70 -33 -120 -33c-143 0 -199 97 -199 219v275c0 122 56 220 199 220zM333 103l-24 42c-6 10 10 10 10 10
h38s10 0 14 -7l17 -31c12 25 19 56 19 95v275c0 112 -53 162 -138 162s-138 -50 -138 -162v-275c0 -112 53 -161 138 -161c32 0 60 7 82 22c-6 9 -12 19 -18 30z" />
    <glyph glyph-name="R" unicode="R" horiz-adv-x="542" 
d="M142 291v-281c0 -10 -9 -10 -9 -10h-42s-10 0 -10 10v690h141c165 0 223 -84 223 -189v-21c0 -100 -39 -166 -130 -191l89 -181c22 -38 44 -63 73 -63h10c10 0 10 -10 10 -10v-34s0 -11 -10 -11h-16c-54 0 -85 30 -127 103l-90 188h-112zM142 642v-293h89
c98 0 153 29 153 141v21c0 92 -55 131 -157 131h-85z" />
    <glyph glyph-name="S" unicode="S" horiz-adv-x="486" 
d="M168 432l182 -96c59 -31 91 -89 91 -154c0 -107 -72 -189 -200 -189c-79 0 -197 44 -197 196c0 10 10 10 10 10h42s9 0 9 -10c0 -112 75 -138 136 -138c101 0 139 73 139 131c0 42 -18 83 -77 114l-153 78c-88 45 -98 116 -98 165c0 108 86 168 189 168
c124 0 179 -72 192 -161c1 -5 0 -11 -6 -13l-39 -10c-6 -2 -13 1 -14 7c-8 73 -52 116 -133 116c-97 0 -128 -60 -128 -110c0 -44 13 -82 55 -104z" />
    <glyph glyph-name="T" unicode="T" horiz-adv-x="481" 
d="M431 642h-160v-632c0 -10 -9 -10 -9 -10h-42s-10 0 -10 10v632h-160c-10 0 -10 9 -10 9v39s0 10 10 10h381c10 0 10 -9 10 -9v-39s0 -10 -10 -10z" />
    <glyph glyph-name="U" unicode="U" horiz-adv-x="524" 
d="M262 -7c-143 0 -197 118 -197 254v443c0 10 10 10 10 10h42s9 0 9 -10v-443c0 -134 51 -196 136 -196s136 62 136 196v443c0 10 9 10 9 10h42s10 0 10 -10v-443c0 -136 -54 -254 -197 -254z" />
    <glyph glyph-name="V" unicode="V" horiz-adv-x="535" 
d="M274 52l153 638c3 10 8 10 11 10h49s10 0 7 -10l-170 -680c-3 -10 -12 -10 -12 -10h-89s-9 0 -11 10l-171 680c-3 10 7 10 7 10h45c3 0 8 0 11 -10l160 -638h10z" />
    <glyph glyph-name="W" unicode="W" horiz-adv-x="753" 
d="M354 648h45c3 0 8 0 11 -10l113 -586h14l106 638c3 10 8 10 11 10h46s10 0 7 -10l-121 -680c-2 -10 -11 -10 -11 -10h-90s-9 0 -12 10l-97 525l-96 -525c-2 -10 -12 -10 -12 -10h-90s-9 0 -11 10l-121 680c-3 10 7 10 7 10h46c3 0 8 0 11 -10l106 -638h14l113 586
c3 10 8 10 11 10z" />
    <glyph glyph-name="X" unicode="X" horiz-adv-x="571" 
d="M320 376l204 -366c5 -10 -3 -10 -7 -10h-46c-3 0 -8 0 -13 10l-174 312l-171 -312c-5 -10 -10 -10 -13 -10h-46c-4 0 -12 0 -7 10l204 373l-169 307c-5 10 3 10 7 10h46c3 0 8 0 13 -10l139 -254l139 254c5 10 10 10 13 10h46c4 0 12 0 7 -10z" />
    <glyph glyph-name="Y" unicode="Y" horiz-adv-x="539" 
d="M235 225l-188 465c-3 8 1 10 5 10h48c3 0 8 0 11 -10l162 -408h10l145 408c3 10 8 10 11 10h48c4 0 8 -2 5 -10l-245 -680c-3 -10 -8 -10 -11 -10h-47c-4 0 -8 2 -5 10l74 205h-12s-7 0 -11 10z" />
    <glyph glyph-name="Z" unicode="Z" horiz-adv-x="537" 
d="M459 631l-327 -573h330c10 0 10 -9 10 -9v-40s-1 -9 -10 -9h-387c-9 0 -10 9 -10 9v41c0 5 0 7 3 13l328 579h-321c-10 0 -10 9 -10 9v40s1 9 10 9h378s9 -1 9 -10v-46c0 -5 0 -7 -3 -13z" />
    <glyph glyph-name="grave" unicode="`" horiz-adv-x="143" 
d="M17 655c-5 8 -1 10 7 10h45c5 0 9 -2 12 -8l42 -81c5 -10 -3 -10 -7 -10h-32c-7 0 -10 2 -14 8c-3 5 -47 72 -53 81z" />
    <glyph glyph-name="a" unicode="a" horiz-adv-x="431" 
d="M192 -7c-93 0 -147 52 -147 134c0 74 28 115 118 137l145 34v55c-3 56 -41 98 -99 98c-60 0 -93 -34 -93 -86c0 -5 -6 -7 -6 -7h-48s-5 2 -5 7c0 87 66 142 152 142c82 0 157 -54 157 -170v-327c0 -10 -9 -10 -9 -10h-39s-10 0 -10 10v35c-32 -43 -81 -52 -116 -52z
M192 49c68 0 116 56 116 116v73l-139 -32c-58 -13 -66 -47 -66 -73c0 -47 35 -84 89 -84z" />
    <glyph glyph-name="b" unicode="b" horiz-adv-x="459" 
d="M128 45v-35c0 -10 -9 -10 -9 -10h-39s-10 0 -10 10v680c0 10 9 10 9 10h39s10 0 10 -10v-225c19 28 64 42 101 42c98 0 165 -70 165 -168v-183c0 -92 -60 -163 -150 -163c-35 0 -84 9 -116 52zM336 156v183c0 62 -39 111 -107 111c-45 0 -102 -27 -102 -111v-188
c0 -64 44 -102 112 -102c55 0 94 48 97 107z" />
    <glyph glyph-name="c" unicode="c" 
d="M328 156c0 11 10 11 10 11h35c8 0 13 -4 13 -13c0 -78 -48 -161 -158 -161c-98 0 -163 56 -163 180v150c0 132 65 184 163 184c58 0 133 -21 149 -122c1 -5 2 -10 -6 -13l-37 -10c-6 -2 -10 1 -11 8c-4 36 -29 81 -95 81c-72 0 -105 -43 -105 -130v-148
c0 -71 36 -124 105 -124c71 0 100 60 100 107z" />
    <glyph glyph-name="d" unicode="d" horiz-adv-x="443" 
d="M373 690v-680c0 -10 -10 -10 -10 -10h-39s-9 0 -9 10v35c-32 -43 -77 -52 -112 -52c-90 0 -153 70 -153 162v183c0 93 52 169 157 169c39 0 90 -17 108 -46v229c0 10 9 10 9 10h40c5 0 9 -4 9 -10zM315 155v183c0 87 -60 113 -108 113c-67 0 -99 -45 -99 -113v-183
c0 -59 40 -106 95 -106c65 0 112 34 112 106z" />
    <glyph glyph-name="e" unicode="e" horiz-adv-x="452" 
d="M382 155c0 0 5 -2 5 -7c0 -100 -66 -155 -161 -155s-161 66 -161 155v192c0 96 64 167 169 167c87 0 153 -58 153 -134v-74c0 -17 -9 -34 -34 -39l-230 -43v-69c3 -56 39 -99 103 -99c65 0 104 38 104 99c0 5 6 7 6 7h46zM329 313v58c0 52 -41 80 -100 80
c-78 0 -106 -50 -106 -111v-66z" />
    <glyph glyph-name="f" unicode="f" horiz-adv-x="301" 
d="M174 435v-425c0 -10 -9 -10 -9 -10h-39s-10 0 -10 10v425h-41c-10 0 -10 9 -10 9v37s0 10 10 10h41v57c0 94 51 152 154 152h21c10 0 10 -9 10 -9v-37s0 -10 -10 -10h-21c-70 0 -96 -31 -96 -96v-57h111c10 0 10 -9 10 -9v-37s0 -10 -10 -10h-111z" />
    <glyph glyph-name="g" unicode="g" horiz-adv-x="482" 
d="M222 507h85c61 0 60 14 79 37c6 8 13 2 13 2l29 -25s7 -6 1 -15l-9 -12c-17 -22 -46 -36 -81 -36c34 -19 47 -81 47 -129v-36c0 -83 -56 -151 -156 -151c-42 0 -62 8 -71 11l-31 -45c-14 -21 -18 -43 21 -43l149 4c64 0 114 -3 110 -113c-4 -100 -55 -168 -195 -168
c-104 0 -146 45 -146 117c0 42 19 82 43 113c-69 21 -51 79 -34 107c20 32 37 52 37 52c-48 36 -48 86 -48 122v30c0 104 55 178 157 178zM230 198c56 0 98 34 98 95v36c0 68 -21 122 -105 122c-79 0 -100 -62 -100 -122v-36c0 -68 39 -95 107 -95zM297 13l-131 -4
s-45 -45 -45 -103c0 -53 51 -67 92 -67c86 0 134 40 137 112c2 39 -3 62 -53 62z" />
    <glyph glyph-name="h" unicode="h" horiz-adv-x="460" 
d="M133 337v-327c0 -10 -10 -10 -10 -10h-38s-10 0 -10 10v680c0 10 9 10 9 10h39s10 0 10 -10v-223c18 30 64 40 106 40c97 0 156 -56 156 -170v-327c0 -10 -9 -10 -9 -10h-39s-10 0 -10 10v327c0 59 -31 114 -98 114c-68 0 -106 -45 -106 -114z" />
    <glyph glyph-name="i" unicode="i" horiz-adv-x="221" 
d="M81 10v480c0 10 9 10 9 10h39s10 0 10 -10v-480c0 -10 -9 -10 -9 -10h-39s-10 0 -10 10zM146 690v-65c0 -10 -9 -10 -9 -10h-52s-10 0 -10 10v65c0 10 9 10 9 10h52s10 0 10 -10z" />
    <glyph glyph-name="j" unicode="j" horiz-adv-x="247" 
d="M167 690v-65c0 -10 -9 -10 -9 -10h-52s-10 0 -10 10v65c0 10 9 10 9 10h52s10 0 10 -10zM0 -212c-10 0 -10 9 -10 9v37s0 10 10 10c53 0 104 17 104 103v543c0 10 9 10 9 10h39s10 0 10 -10v-543c0 -103 -62 -159 -162 -159z" />
    <glyph glyph-name="k" unicode="k" horiz-adv-x="419" 
d="M169 259l-41 -51v-198c0 -10 -9 -10 -9 -10h-40s-9 0 -9 10v680c0 10 9 10 9 10h39s10 0 10 -10v-398l168 202c4 6 11 6 11 6h54c4 0 11 -1 6 -7l-160 -192l105 -183c32 -51 42 -62 83 -62h4c10 0 10 -10 10 -10v-35s0 -11 -10 -11h-10c-54 0 -88 26 -130 98z" />
    <glyph glyph-name="l" unicode="l" horiz-adv-x="258" 
d="M230 49c10 0 10 -9 10 -9v-37s0 -10 -10 -10c-146 0 -158 107 -158 163v534c0 10 9 10 9 10h39s10 0 10 -10v-534c0 -72 24 -107 100 -107z" />
    <glyph glyph-name="m" unicode="m" horiz-adv-x="666" 
d="M229 507c44 0 90 -12 114 -48c23 33 64 48 103 48c76 0 155 -33 155 -168v-329c0 -10 -10 -10 -10 -10h-38s-10 0 -10 10v329c0 65 -28 112 -97 112c-42 0 -75 -32 -75 -81v-360c0 -10 -10 -10 -10 -10h-36s-10 0 -10 10v360c0 40 -25 81 -87 81
c-80 0 -100 -59 -100 -112v-329c0 -10 -11 -10 -11 -10h-37s-10 0 -10 10v480c0 10 9 10 9 10h40s9 0 9 -10v-29c17 28 58 46 101 46z" />
    <glyph glyph-name="n" unicode="n" horiz-adv-x="456" 
d="M70 10v480c0 10 9 10 9 10h40s9 0 9 -10v-29c23 32 63 46 106 46c90 0 157 -59 157 -170v-327c0 -10 -10 -10 -10 -10h-38s-10 0 -10 10v327c0 65 -28 114 -102 114c-80 0 -103 -61 -103 -114v-327c0 -10 -11 -10 -11 -10h-37s-10 0 -10 10z" />
    <glyph glyph-name="o" unicode="o" horiz-adv-x="422" 
d="M211 49c59 0 103 45 103 123v150c0 98 -43 129 -103 129s-103 -31 -103 -129v-150c0 -78 44 -123 103 -123zM211 507c109 0 161 -66 161 -185v-149c0 -109 -49 -180 -161 -180s-161 71 -161 180v149c0 119 52 185 161 185z" />
    <glyph glyph-name="p" unicode="p" horiz-adv-x="459" 
d="M128 45v-247c0 -10 -9 -10 -9 -10h-39s-10 0 -10 10v692c0 10 9 10 9 10h39s10 0 10 -10v-39c11 29 67 56 112 56c103 0 154 -73 154 -170v-173c0 -92 -65 -171 -152 -171c-35 0 -82 9 -114 52zM336 164v173c0 72 -37 114 -104 114c-56 0 -104 -43 -104 -114v-172
c0 -60 39 -116 107 -116c55 0 101 50 101 115z" />
    <glyph glyph-name="q" unicode="q" horiz-adv-x="441" 
d="M313 165v172c0 82 -46 114 -101 114c-74 0 -104 -51 -104 -114v-173c0 -65 36 -115 97 -115c77 0 108 48 108 116zM371 490v-692c0 -10 -10 -10 -10 -10h-39s-9 0 -9 10v247c-32 -43 -81 -52 -116 -52c-90 0 -147 79 -147 171v173c0 96 49 170 162 170
c45 0 85 -19 101 -46v29c0 10 10 10 10 10h39s9 0 9 -10z" />
    <glyph glyph-name="r" unicode="r" horiz-adv-x="266" 
d="M236 449c-75 0 -108 -40 -108 -115v-324c0 -10 -11 -10 -11 -10h-37s-10 0 -10 10v480c0 10 10 10 10 10h37s11 0 11 -10v-29c21 36 72 46 108 46c10 0 10 -10 10 -10v-37s0 -11 -10 -11z" />
    <glyph glyph-name="s" unicode="s" horiz-adv-x="416" 
d="M304 380c-4 33 -20 71 -88 71c-77 0 -88 -53 -88 -72c0 -21 8 -46 37 -61c49 -26 71 -39 121 -66c71 -39 81 -89 81 -130c0 -70 -54 -129 -147 -129c-122 0 -163 98 -163 151c0 10 9 10 9 10h40s10 0 10 -10c0 -53 40 -95 106 -95c45 0 88 30 88 73c0 25 -5 54 -58 82
l-109 58c-53 28 -72 79 -72 115c0 50 34 130 145 130c74 0 138 -37 143 -118c0 -5 1 -10 -8 -12l-36 -6c-7 -1 -10 2 -11 9z" />
    <glyph glyph-name="t" unicode="t" horiz-adv-x="307" 
d="M248 0h-6c-99 0 -154 40 -154 152v283h-43c-10 0 -10 9 -10 9v37s0 10 10 10h43v179c0 10 9 10 9 10h39s10 0 10 -10v-179h105c10 0 10 -9 10 -9v-37s0 -10 -10 -10h-105v-283c0 -79 29 -95 96 -96h6c10 0 10 -9 10 -9v-37s0 -10 -10 -10z" />
    <glyph glyph-name="u" unicode="u" 
d="M386 490v-480c0 -10 -11 -10 -11 -10h-37s-10 0 -10 10v35c-14 -27 -50 -52 -110 -52c-85 0 -153 49 -153 172v325c0 10 9 10 9 10h40s9 0 9 -10v-325c0 -79 32 -116 101 -116c32 0 104 17 104 116v325c0 10 9 10 9 10h40s9 0 9 -10z" />
    <glyph glyph-name="v" unicode="v" horiz-adv-x="395" 
d="M218 0h-44s-8 0 -10 10l-139 480c-4 10 7 10 7 10h43s8 0 10 -10l111 -400l109 400c2 10 10 10 10 10h43s11 0 7 -10l-137 -480c-2 -10 -10 -10 -10 -10z" />
    <glyph glyph-name="w" unicode="w" horiz-adv-x="626" 
d="M351 490l104 -390l78 390c2 10 10 10 10 10h45s9 0 7 -10l-110 -480c-2 -10 -10 -10 -10 -10h-41s-8 0 -10 10l-111 423l-110 -423c-2 -10 -10 -10 -10 -10h-41s-8 0 -10 10l-111 480c-3 10 7 10 7 10h45s8 0 10 -10l80 -390l102 390c3 10 8 10 11 10h54c3 0 8 0 11 -10z
" />
    <glyph glyph-name="x" unicode="x" horiz-adv-x="396" 
d="M303 10l-107 188l-104 -188c-5 -10 -10 -10 -13 -10h-45c-4 0 -12 0 -7 10l137 248l-121 232c-5 10 3 10 7 10h45c3 0 8 0 13 -10l93 -183l95 183c5 10 10 10 13 10h46c4 0 12 0 7 -10l-128 -243l135 -237c5 -10 -3 -10 -7 -10h-46c-3 0 -8 0 -13 10z" />
    <glyph glyph-name="y" unicode="y" horiz-adv-x="396" 
d="M141 10l-115 480c-3 10 7 10 7 10h45s8 0 10 -10l94 -414h10l112 414c2 10 10 10 10 10h44s10 0 7 -10l-163 -584c-27 -98 -84 -118 -142 -118h-11c-10 0 -10 11 -10 11v35s0 10 10 10c32 0 83 -2 99 64l23 92h-19s-7 0 -11 10z" />
    <glyph glyph-name="z" unicode="z" horiz-adv-x="434" 
d="M118 56h257c10 0 10 -9 10 -9v-38s-1 -9 -10 -9h-321c-9 0 -10 9 -10 9v33c0 5 0 7 3 13l265 389h-245c-10 0 -10 9 -10 9v38s1 9 10 9h299s9 -1 9 -10v-48c0 -5 0 -7 -3 -13z" />
    <glyph glyph-name="dieresis" unicode="&#xa8;" horiz-adv-x="343" 
d="M115 652v-52c0 -10 -9 -10 -9 -10h-49s-10 0 -10 10v52c0 10 9 10 9 10h49s10 0 10 -10zM292 652v-52c0 -10 -9 -10 -9 -10h-49s-10 0 -10 10v52c0 10 9 10 9 10h49s10 0 10 -10z" />
    <glyph glyph-name="guillemotleft" unicode="&#xab;" horiz-adv-x="369" 
d="M111 134l-66 123l66 123c3 6 5 8 10 8h42c3 0 8 -1 8 -5c0 -1 0 -3 -1 -5l-66 -121l66 -121c1 -2 1 -4 1 -5c0 -5 -5 -5 -8 -5h-42c-5 0 -7 2 -10 8zM244 134l-66 123l66 123c3 6 5 8 10 8h42c3 0 8 -1 8 -5c0 -1 0 -3 -1 -5l-66 -121l66 -121c1 -2 1 -4 1 -5
c0 -5 -5 -5 -8 -5h-42c-5 0 -7 2 -10 8z" />
    <glyph glyph-name="guillemotright" unicode="&#xbb;" horiz-adv-x="370" 
d="M325 257l-66 -123c-3 -6 -5 -8 -10 -8h-42c-4 0 -12 1 -7 10l66 121l-66 121c-5 9 3 10 7 10h42c5 0 7 -2 10 -8zM192 257l-66 -123c-3 -6 -5 -8 -10 -8h-42c-4 0 -12 1 -7 10l66 121l-66 121c-5 9 3 10 7 10h42c5 0 7 -2 10 -8z" />
    <glyph glyph-name="Adieresis" unicode="&#xc4;" horiz-adv-x="562" 
d="M275 642l-88 -320h190l-84 320h-18zM238 700h88s9 0 12 -10l190 -683c2 -7 -6 -7 -6 -7h-49c-3 0 -7 3 -9 10l-72 253h-220l-74 -253c-2 -7 -6 -10 -9 -10h-49s-8 0 -6 7l193 683c3 10 11 10 11 10zM230 832v-52c0 -10 -9 -10 -9 -10h-49s-10 0 -10 10v52c0 10 9 10 9 10
h49s10 0 10 -10zM407 832v-52c0 -10 -9 -10 -9 -10h-49s-10 0 -10 10v52c0 10 9 10 9 10h49s10 0 10 -10z" />
    <glyph glyph-name="Edieresis" unicode="&#xcb;" horiz-adv-x="442" 
d="M60 0v700h353c10 0 10 -9 10 -9v-40s0 -9 -9 -9h-293v-261h222c10 0 10 -9 10 -9v-40s0 -9 -9 -9h-223v-265h292c10 0 10 -9 10 -9v-40s0 -9 -9 -9h-354zM166 832v-52c0 -10 -9 -10 -9 -10h-49s-10 0 -10 10v52c0 10 9 10 9 10h49s10 0 10 -10zM343 832v-52
c0 -10 -9 -10 -9 -10h-49s-10 0 -10 10v52c0 10 9 10 9 10h49s10 0 10 -10z" />
    <glyph glyph-name="Odieresis" unicode="&#xd6;" horiz-adv-x="503" 
d="M252 707c143 0 199 -98 199 -220v-275c0 -122 -56 -219 -199 -219s-199 97 -199 219v275c0 122 56 220 199 220zM252 649c-85 0 -138 -50 -138 -162v-275c0 -112 53 -161 138 -161s138 49 138 161v275c0 112 -53 162 -138 162zM197 832v-52c0 -10 -9 -10 -9 -10h-49
s-10 0 -10 10v52c0 10 9 10 9 10h49s10 0 10 -10zM374 832v-52c0 -10 -9 -10 -9 -10h-49s-10 0 -10 10v52c0 10 9 10 9 10h49s10 0 10 -10z" />
    <glyph glyph-name="Udieresis" unicode="&#xdc;" horiz-adv-x="504" 
d="M252 -7c-143 0 -197 118 -197 254v443c0 10 10 10 10 10h42s9 0 9 -10v-443c0 -134 51 -196 136 -196s136 62 136 196v443c0 10 9 10 9 10h42s10 0 10 -10v-443c0 -136 -54 -254 -197 -254zM197 832v-52c0 -10 -9 -10 -9 -10h-49s-10 0 -10 10v52c0 10 9 10 9 10h49
s10 0 10 -10zM374 832v-52c0 -10 -9 -10 -9 -10h-49s-10 0 -10 10v52c0 10 9 10 9 10h49s10 0 10 -10z" />
    <glyph glyph-name="adieresis" unicode="&#xe4;" horiz-adv-x="421" 
d="M180 -7c-93 0 -147 52 -147 134c0 74 28 115 118 137l145 34v55c-3 56 -41 98 -99 98c-60 0 -93 -34 -93 -86c0 -5 -6 -7 -6 -7h-48s-5 2 -5 7c0 87 66 142 152 142c82 0 157 -54 157 -170v-327c0 -10 -9 -10 -9 -10h-39s-10 0 -10 10v35c-32 -43 -81 -52 -116 -52z
M180 49c68 0 116 56 116 116v73l-139 -32c-58 -13 -66 -47 -66 -73c0 -47 35 -84 89 -84zM138 652v-52c0 -10 -9 -10 -9 -10h-49s-10 0 -10 10v52c0 10 9 10 9 10h49s10 0 10 -10zM315 652v-52c0 -10 -9 -10 -9 -10h-49s-10 0 -10 10v52c0 10 9 10 9 10h49s10 0 10 -10z" />
    <glyph glyph-name="edieresis" unicode="&#xeb;" horiz-adv-x="421" 
d="M368 155c0 0 5 -2 5 -7c0 -100 -66 -155 -161 -155s-161 66 -161 155v192c0 96 64 167 169 167c87 0 153 -58 153 -134v-74c0 -17 -9 -34 -34 -39l-230 -43v-69c3 -56 39 -99 103 -99c65 0 104 38 104 99c0 5 6 7 6 7h46zM315 313v58c0 52 -41 80 -100 80
c-78 0 -106 -50 -106 -111v-66zM155 652v-52c0 -10 -9 -10 -9 -10h-49s-10 0 -10 10v52c0 10 9 10 9 10h49s10 0 10 -10zM332 652v-52c0 -10 -9 -10 -9 -10h-49s-10 0 -10 10v52c0 10 9 10 9 10h49s10 0 10 -10z" />
    <glyph glyph-name="odieresis" unicode="&#xf6;" horiz-adv-x="427" 
d="M214 49c59 0 103 45 103 123v150c0 98 -43 129 -103 129s-103 -31 -103 -129v-150c0 -78 44 -123 103 -123zM214 507c109 0 161 -66 161 -185v-149c0 -109 -49 -180 -161 -180s-161 71 -161 180v149c0 119 52 185 161 185zM158 652v-52c0 -10 -9 -10 -9 -10h-49
s-10 0 -10 10v52c0 10 9 10 9 10h49s10 0 10 -10zM335 652v-52c0 -10 -9 -10 -9 -10h-49s-10 0 -10 10v52c0 10 9 10 9 10h49s10 0 10 -10z" />
    <glyph glyph-name="udieresis" unicode="&#xfc;" horiz-adv-x="436" 
d="M377 490v-480c0 -10 -11 -10 -11 -10h-37s-10 0 -10 10v35c-14 -27 -50 -52 -110 -52c-85 0 -153 49 -153 172v325c0 10 9 10 9 10h40s9 0 9 -10v-325c0 -79 32 -116 101 -116c32 0 104 17 104 116v325c0 10 9 10 9 10h40s9 0 9 -10zM163 652v-52c0 -10 -9 -10 -9 -10
h-49s-10 0 -10 10v52c0 10 9 10 9 10h49s10 0 10 -10zM340 652v-52c0 -10 -9 -10 -9 -10h-49s-10 0 -10 10v52c0 10 9 10 9 10h49s10 0 10 -10z" />
    <glyph glyph-name="minus" unicode="&#x2212;" horiz-adv-x="472" 
d="M94 296h276c10 0 10 -9 10 -9v-37s0 -10 -10 -10h-276c-10 0 -10 9 -10 9v37s0 10 10 10z" />
    <glyph glyph-name="germandbls" unicode="&#xdf;" horiz-adv-x="461" 
d="M361 218c0 125 -76 161 -123 161h-23c-10 0 -10 10 -10 10v38s0 9 10 9h24c47 0 90 33 90 113c0 69 -41 100 -97 100c-65 0 -101 -37 -101 -129v-510c0 -10 -9 -10 -9 -10h-42s-10 0 -10 10v510c0 75 27 187 162 187c113 0 158 -72 158 -158c0 -55 -26 -122 -78 -143
c73 -24 110 -103 110 -188c0 -143 -66 -218 -178 -218h-13c-10 0 -10 10 -10 10v39s0 9 10 9h14c65 0 116 37 116 160z" />
    <glyph glyph-name="guilsinglleft" unicode="&#x2039;" horiz-adv-x="207" 
d="M111 114l-66 123l66 123c3 6 5 8 10 8h42c4 0 12 -1 7 -10l-66 -121l66 -121c5 -9 -3 -10 -7 -10h-42c-5 0 -7 2 -10 8z" />
    <glyph glyph-name="guilsinglright" unicode="&#x203a;" horiz-adv-x="207" 
d="M162 237l-66 -123c-3 -6 -5 -8 -10 -8h-42c-4 0 -12 1 -7 10l66 121l-66 121c-5 9 3 10 7 10h42c5 0 7 -2 10 -8z" />
    <glyph glyph-name="section" unicode="&#xa7;" horiz-adv-x="423" 
d="M305 596c-9 32 -32 71 -98 71c-78 0 -90 -53 -90 -72c0 -21 9 -46 38 -61l123 -66c63 -34 86 -74 86 -127c0 -51 -32 -106 -90 -117c82 -44 87 -92 87 -132c0 -70 -55 -129 -150 -129c-124 0 -166 98 -166 151c0 10 9 10 9 10h41s10 0 10 -10c0 -53 41 -95 108 -95
c46 0 90 30 90 73c0 25 -5 54 -59 82l-76 39c-83 38 -107 79 -107 138c0 66 50 113 87 118c-70 31 -89 88 -89 124c0 50 35 130 148 130c58 0 131 -21 152 -109c1 -5 2 -10 -6 -13l-36 -12c-6 -2 -10 0 -12 7zM162 281l27 -13c55 -27 115 21 118 64c3 39 -10 65 -72 96
c-42 21 -121 5 -121 -74c0 -25 1 -46 48 -73z" />
    <glyph glyph-name="backslash" unicode="\" horiz-adv-x="290" 
d="M220 -27l-254 752c-3 10 3 10 7 10h37c5 0 8 -2 10 -8l254 -752c3 -10 -3 -10 -7 -10h-37c-5 0 -8 2 -10 8z" />
    <glyph glyph-name="bar" unicode="|" horiz-adv-x="196" 
d="M126 741v-782c0 -10 -9 -10 -9 -10h-37s-10 0 -10 10v782c0 10 9 10 9 10h37s10 0 10 -10z" />
    <glyph glyph-name="underscore" unicode="_" horiz-adv-x="526" 
d="M45 -25h436c10 0 10 -9 10 -9v-31s0 -10 -10 -10h-436c-10 0 -10 9 -10 9v31s0 10 10 10z" />
    <glyph glyph-name="endash" unicode="&#x2013;" horiz-adv-x="408" 
d="M42 296h325c10 0 10 -9 10 -9v-37s0 -10 -10 -10h-325c-10 0 -10 9 -10 9v37s0 10 10 10z" />
    <glyph glyph-name="emdash" unicode="&#x2014;" horiz-adv-x="546" 
d="M45 296h456c10 0 10 -9 10 -9v-37s0 -10 -10 -10h-456c-10 0 -10 9 -10 9v37s0 10 10 10z" />
    <glyph glyph-name="multiply" unicode="&#xd7;" horiz-adv-x="391" 
d="M232 267l78 -77c7 -7 0 -14 0 -14l-26 -27s-6 -6 -13 1l-78 78l-78 -78c-7 -7 -13 -1 -13 -1l-26 27s-7 7 0 14l77 77l-77 78c-7 7 0 15 0 15l26 26s6 6 13 -1l80 -80l78 78c7 7 13 1 13 1l24 -24s7 -8 0 -15z" />
    <glyph glyph-name="Oslash" unicode="&#xd8;" horiz-adv-x="503" 
d="M252 707c33 0 61 -5 85 -15l12 35c2 6 5 8 10 8h42c4 0 10 0 7 -10l-22 -63c45 -40 65 -103 65 -175v-275c0 -122 -56 -219 -199 -219c-34 0 -62 6 -86 15l-12 -35c-2 -6 -5 -8 -10 -8h-42c-4 0 -10 0 -7 10l21 63c-44 40 -63 103 -63 174v275c0 122 56 220 199 220z
M390 487c0 46 -10 82 -26 108l-179 -531c19 -9 41 -13 67 -13c85 0 138 49 138 161v275zM252 649c-85 0 -138 -50 -138 -162v-275c0 -46 8 -84 24 -110l180 533c-19 9 -41 14 -66 14z" />
    <glyph glyph-name="ae" unicode="&#xe6;" horiz-adv-x="675" 
d="M192 -7c-93 0 -147 52 -147 134c0 74 28 110 118 132l145 21v73c-3 56 -41 98 -99 98c-60 0 -93 -34 -93 -86c0 -5 -6 -7 -6 -7h-48s-5 2 -5 7c0 87 66 142 152 142c49 0 102 -18 132 -77c26 56 75 77 136 77c87 0 153 -58 153 -134v-68c0 -17 -9 -34 -34 -39l-230 -34
v-84c3 -56 39 -99 103 -99c65 0 104 38 104 99c0 5 6 7 6 7h46s5 -2 5 -7c0 -100 -66 -155 -161 -155c-63 0 -112 29 -137 79c-6 -24 -54 -79 -140 -79zM192 49c66 0 113 53 116 111v64l-139 -21c-58 -13 -66 -44 -66 -70c0 -47 35 -84 89 -84zM572 319v52
c0 52 -41 80 -100 80c-69 0 -105 -36 -105 -89v-74z" />
    <glyph glyph-name="acute" unicode="&#xb4;" horiz-adv-x="215" 
d="M163 655c-6 -9 -50 -76 -53 -81c-4 -6 -7 -8 -14 -8h-32c-4 0 -12 0 -7 10l42 81c3 6 7 8 12 8h45c8 0 12 -2 7 -10z" />
    <glyph glyph-name="Oacute" unicode="&#xd3;" horiz-adv-x="503" 
d="M252 707c-143 0 -199 -98 -199 -220v-275c0 -122 56 -219 199 -219s199 97 199 219v275c0 122 -56 220 -199 220zM252 649c85 0 138 -50 138 -162v-275c0 -112 -53 -161 -138 -161s-138 49 -138 161v275c0 112 53 162 138 162zM328 855c-6 -9 -50 -76 -53 -81
c-4 -6 -7 -8 -14 -8h-32c-4 0 -12 0 -7 10l42 81c3 6 7 8 12 8h45c8 0 12 -2 7 -10z" />
    <glyph glyph-name="Euro" unicode="&#x20ac;" horiz-adv-x="525" 
d="M116 237h-45c-10 0 -11 4 -10 9l12 37c2 5 4 10 14 10h29v85h-42c-10 0 -11 4 -10 9l12 37c2 6 4 10 14 10h26v64c0 122 54 209 177 209s177 -87 177 -209c0 -10 -9 -10 -9 -10h-42s-10 0 -10 10c0 112 -51 151 -116 151s-116 -39 -116 -151v-64h173c10 0 11 -4 10 -9
l-12 -37c-2 -4 -4 -10 -14 -10h-157v-85h136c10 0 11 -4 10 -9l-12 -37c-2 -4 -4 -10 -14 -10h-120v-34c0 -112 51 -152 116 -152s116 40 116 152c0 10 9 10 9 10h42s10 0 10 -10c0 -122 -65 -210 -177 -210s-177 88 -177 210v34z" />
    <glyph glyph-name="oslash" unicode="&#xf8;" horiz-adv-x="427" 
d="M340 541l-23 -66c38 -31 57 -81 57 -138v-173c0 -95 -48 -171 -160 -171c-21 0 -40 3 -57 8l-13 -38c-2 -6 -5 -8 -10 -8h-42c-4 0 -10 0 -7 10l22 65c-36 31 -54 79 -54 134v173c0 96 52 170 161 170c19 0 37 -2 52 -7l15 43c2 6 5 8 10 8h42c4 0 10 0 7 -10zM316 164
v173c0 29 -8 54 -21 73l-119 -353c12 -5 25 -8 38 -8c59 0 102 42 102 115zM111 164c0 -26 7 -49 18 -67l119 349c-11 3 -22 5 -34 5c-59 0 -103 -45 -103 -114v-173z" />
    <glyph glyph-name="divide" unicode="&#xf7;" horiz-adv-x="405" 
d="M240 70v-60c0 -10 -9 -10 -9 -10h-57s-10 0 -10 10v60c0 10 9 10 9 10h57s10 0 10 -10zM240 377v-60c0 -10 -9 -10 -9 -10h-57s-10 0 -10 10v60c0 10 9 10 9 10h57s10 0 10 -10zM46 221h313c11 0 11 -10 11 -10v-38s0 -10 -11 -10h-313c-11 0 -11 9 -11 9v38s0 11 11 11z
" />
    <glyph glyph-name="quotedbl" unicode="&#x22;" horiz-adv-x="271" 
d="M91 575h-19s-9 0 -10 10l-13 145c0 10 9 10 9 10h45s10 0 10 -10l-12 -145c-1 -10 -10 -10 -10 -10zM180 575h-19s-9 0 -10 10l-13 145c0 10 9 10 9 10h45s10 0 10 -10l-12 -145c-1 -10 -10 -10 -10 -10z" />
    <glyph glyph-name="exclam" unicode="!" horiz-adv-x="206" 
d="M72 168v522c0 10 9 10 9 10h42s10 0 10 -10v-522c0 -10 -10 -10 -10 -10h-42s-9 0 -9 10zM141 70v-60c0 -10 -9 -10 -9 -10h-57s-10 0 -10 10v60c0 10 9 10 9 10h57s10 0 10 -10z" />
    <glyph glyph-name="AE" unicode="&#xc6;" horiz-adv-x="739" 
d="M366 361v281h-24l-88 -281h112zM366 0v302h-127l-94 -292c-2 -7 -6 -10 -9 -10h-49s-8 0 -6 7l221 683c3 10 11 10 11 10h314c10 0 10 -9 10 -9v-40s0 -9 -9 -9c0 0 91 0 -201 0v-281h152c10 0 10 -9 10 -9v-40s0 -9 -9 -9c0 0 69 0 -153 0v-245h222c10 0 10 -9 10 -9
v-40s0 -9 -9 -9c0 0 70 0 -284 0z" />
    <glyph glyph-name="Idieresis" unicode="&#xcf;" horiz-adv-x="175" 
d="M121 690v-680c0 -10 -9 -10 -9 -10h-42s-10 0 -10 10v680c0 10 9 10 9 10h42s10 0 10 -10zM33 832v-52c0 -10 -9 -10 -9 -10h-49s-10 0 -10 10v52c0 10 9 10 9 10h49s10 0 10 -10zM210 832v-52c0 -10 -9 -10 -9 -10h-49s-10 0 -10 10v52c0 10 9 10 9 10h49s10 0 10 -10z
" />
    <glyph glyph-name="ograve" unicode="&#xf2;" 
d="M226 49c59 0 103 45 103 123v150c0 98 -43 129 -103 129s-103 -31 -103 -129v-150c0 -78 44 -123 103 -123zM226 507c109 0 161 -66 161 -185v-149c0 -109 -49 -180 -161 -180s-161 71 -161 180v149c0 119 52 185 161 185zM149 685c-5 8 -1 10 7 10h45c5 0 9 -2 12 -8
l42 -81c5 -10 -3 -10 -7 -10h-32c-7 0 -10 2 -14 8c-3 5 -47 72 -53 81z" />
    <glyph glyph-name="Ugrave" unicode="&#xd9;" horiz-adv-x="524" 
d="M262 -7c-143 0 -197 118 -197 254v443c0 10 10 10 10 10h42s9 0 9 -10v-443c0 -134 51 -196 136 -196s136 62 136 196v443c0 10 9 10 9 10h42s10 0 10 -10v-443c0 -136 -54 -254 -197 -254zM209 855c-5 8 -1 10 7 10h45c5 0 9 -2 12 -8l42 -81c5 -10 -3 -10 -7 -10h-32
c-7 0 -10 2 -14 8c-3 5 -47 72 -53 81z" />
    <glyph glyph-name="questiondown" unicode="&#xbf;" horiz-adv-x="366" 
d="M76 139c0 -59 35 -88 102 -88c75 0 104 49 104 114c0 62 -39 97 -62 124c-38 43 -71 84 -71 140v103c0 10 10 10 10 10h42s9 0 9 -10v-111c0 -27 30 -66 55 -95c45 -52 78 -88 78 -161c0 -95 -49 -172 -163 -172c-103 0 -157 48 -161 146c0 12 9 12 9 12h38s10 0 10 -12z
M219 690v-60c0 -10 -10 -10 -10 -10h-57s-9 0 -9 10v60c0 10 10 10 10 10h57s9 0 9 -10z" />
    <glyph glyph-name="ellipsis" unicode="&#x2026;" horiz-adv-x="464" 
d="M121 70v-60c0 -10 -9 -10 -9 -10h-57s-10 0 -10 10v60c0 10 9 10 9 10h57s10 0 10 -10zM270 70v-60c0 -10 -9 -10 -9 -10h-57s-10 0 -10 10v60c0 10 9 10 9 10h57s10 0 10 -10zM419 70v-60c0 -10 -9 -10 -9 -10h-57s-10 0 -10 10v60c0 10 9 10 9 10h57s10 0 10 -10z" />
    <glyph glyph-name="quotesinglbase" unicode="&#x201a;" horiz-adv-x="154" 
d="M29 -105h-2c-7 0 -8 5 -8 10v8c0 5 1 8 6 8h4c39 0 53 31 51 79h-27s-10 0 -10 10v60c0 10 9 10 9 10h57s10 0 10 -10v-60c0 -83 -30 -115 -90 -115z" />
    <glyph glyph-name="quotedblbase" unicode="&#x201e;" horiz-adv-x="271" 
d="M29 -105h-2c-7 0 -8 5 -8 10v8c0 5 1 8 6 8h4c39 0 53 31 51 79h-27s-10 0 -10 10v60c0 10 9 10 9 10h57s10 0 10 -10v-60c0 -83 -30 -115 -90 -115zM146 -105h-2c-7 0 -8 5 -8 10v8c0 5 1 8 6 8h4c39 0 53 31 51 79h-27s-10 0 -10 10v60c0 10 9 10 9 10h57s10 0 10 -10
v-60c0 -83 -30 -115 -90 -115z" />
    <glyph glyph-name="quotedblright" unicode="&#x201d;" horiz-adv-x="271" 
d="M29 575h-2c-7 0 -8 5 -8 10v8c0 5 1 8 6 8h4c39 0 53 31 51 79h-27s-10 0 -10 10v60c0 10 9 10 9 10h57s10 0 10 -10v-60c0 -83 -30 -115 -90 -115zM146 575h-2c-7 0 -8 5 -8 10v8c0 5 1 8 6 8h4c39 0 53 31 51 79h-27s-10 0 -10 10v60c0 10 9 10 9 10h57s10 0 10 -10
v-60c0 -83 -30 -115 -90 -115z" />
    <glyph glyph-name="quotedblleft" unicode="&#x201c;" horiz-adv-x="271" 
d="M236 760h2c7 0 8 -5 8 -10v-8c0 -5 -1 -8 -6 -8h-4c-39 0 -53 -31 -51 -79h27s10 0 10 -10v-60c0 -10 -9 -10 -9 -10h-57s-10 0 -10 10v60c0 83 30 115 90 115zM119 760h2c7 0 8 -5 8 -10v-8c0 -5 -1 -8 -6 -8h-4c-39 0 -53 -31 -51 -79h27s10 0 10 -10v-60
c0 -10 -9 -10 -9 -10h-57s-10 0 -10 10v60c0 83 30 115 90 115z" />
    <glyph glyph-name="quoteleft" unicode="&#x2018;" horiz-adv-x="144" 
d="M119 760h2c7 0 8 -5 8 -10v-8c0 -5 -1 -8 -6 -8h-4c-39 0 -53 -31 -51 -79h27s10 0 10 -10v-60c0 -10 -9 -10 -9 -10h-57s-10 0 -10 10v60c0 83 30 115 90 115z" />
    <glyph glyph-name="quoteright" unicode="&#x2019;" horiz-adv-x="144" 
d="M29 575h-2c-7 0 -8 5 -8 10v8c0 5 1 8 6 8h4c39 0 53 31 51 79h-27s-10 0 -10 10v60c0 10 9 10 9 10h57s10 0 10 -10v-60c0 -83 -30 -115 -90 -115z" />
    <glyph glyph-name="egrave" unicode="&#xe8;" horiz-adv-x="452" 
d="M382 155c0 0 5 -2 5 -7c0 -100 -66 -155 -161 -155s-161 66 -161 155v192c0 96 64 167 169 167c87 0 153 -58 153 -134v-74c0 -17 -9 -34 -34 -39l-230 -43v-69c3 -56 39 -99 103 -99c65 0 104 38 104 99c0 5 6 7 6 7h46zM329 313v58c0 52 -41 80 -100 80
c-78 0 -106 -50 -106 -111v-66zM153 706c-5 8 -1 10 7 10h45c5 0 9 -2 12 -8l42 -81c5 -10 -3 -10 -7 -10h-32c-7 0 -10 2 -14 8c-3 5 -47 72 -53 81z" />
    <glyph glyph-name="eacute" unicode="&#xe9;" horiz-adv-x="452" 
d="M382 155c0 0 5 -2 5 -7c0 -100 -66 -155 -161 -155s-161 66 -161 155v192c0 96 64 167 169 167c87 0 153 -58 153 -134v-74c0 -17 -9 -34 -34 -39l-230 -43v-69c3 -56 39 -99 103 -99c65 0 104 38 104 99c0 5 6 7 6 7h46zM329 313v58c0 52 -41 80 -100 80
c-78 0 -106 -50 -106 -111v-66zM291 655c-6 -9 -50 -76 -53 -81c-4 -6 -7 -8 -14 -8h-32c-4 0 -12 0 -7 10l42 81c3 6 7 8 12 8h45c8 0 12 -2 7 -10z" />
    <glyph glyph-name="oacute" unicode="&#xf3;" horiz-adv-x="422" 
d="M211 49c-59 0 -103 45 -103 123v150c0 98 43 129 103 129s103 -31 103 -129v-150c0 -78 -44 -123 -103 -123zM211 507c-109 0 -161 -66 -161 -185v-149c0 -109 49 -180 161 -180s161 71 161 180v149c0 119 -52 185 -161 185zM282 655c-6 -9 -50 -76 -53 -81
c-4 -6 -7 -8 -14 -8h-32c-4 0 -12 0 -7 10l42 81c3 6 7 8 12 8h45c8 0 12 -2 7 -10z" />
    <glyph glyph-name="ugrave" unicode="&#xf9;" 
d="M386 490v-480c0 -10 -11 -10 -11 -10h-37s-10 0 -10 10v35c-14 -27 -50 -52 -110 -52c-85 0 -153 49 -153 172v325c0 10 9 10 9 10h40s9 0 9 -10v-325c0 -79 32 -116 101 -116c32 0 104 17 104 116v325c0 10 9 10 9 10h40s9 0 9 -10zM172 655c-5 8 -1 10 7 10h45
c5 0 9 -2 12 -8l42 -81c5 -10 -3 -10 -7 -10h-32c-7 0 -10 2 -14 8c-3 5 -47 72 -53 81z" />
    <glyph glyph-name="uacute" unicode="&#xfa;" 
d="M386 490v-480c0 -10 -11 -10 -11 -10h-37s-10 0 -10 10v35c-14 -27 -50 -52 -110 -52c-85 0 -153 49 -153 172v325c0 10 9 10 9 10h40s9 0 9 -10v-325c0 -79 32 -116 101 -116c32 0 104 17 104 116v325c0 10 9 10 9 10h40s9 0 9 -10zM278 655c-6 -9 -50 -76 -53 -81
c-4 -6 -7 -8 -14 -8h-32c-4 0 -12 0 -7 10l42 81c3 6 7 8 12 8h45c8 0 12 -2 7 -10z" />
    <glyph glyph-name="ydieresis" unicode="&#xff;" horiz-adv-x="396" 
d="M141 10l-115 480c-3 10 7 10 7 10h45s8 0 10 -10l94 -414h10l112 414c2 10 10 10 10 10h44s10 0 7 -10l-163 -584c-27 -98 -84 -118 -142 -118h-11c-10 0 -10 11 -10 11v35s0 10 10 10c32 0 83 -2 99 64l23 92h-19s-7 0 -11 10zM141 652v-52c0 -10 -9 -10 -9 -10h-49
s-10 0 -10 10v52c0 10 9 10 9 10h49s10 0 10 -10zM318 652v-52c0 -10 -9 -10 -9 -10h-49s-10 0 -10 10v52c0 10 9 10 9 10h49s10 0 10 -10z" />
    <glyph glyph-name="degree" unicode="&#xb0;" horiz-adv-x="190" 
d="M22 664c0 40 33 73 73 73s73 -33 73 -73s-33 -73 -73 -73s-73 33 -73 73zM64 664c0 -16 15 -31 31 -31s31 15 31 31s-15 31 -31 31s-31 -15 -31 -31z" />
    </font>
</defs>
</svg>
